<?xml version="1.0" encoding="UTF-8"?>
<svg width="512px" height="512px" viewBox="0 0 512 512" version="1.1" xmlns="http://www.w3.org/2000/svg">
    <g stroke="none" stroke-width="1" fill="none" fill-rule="evenodd">
        <g id="anatomy-icon" fill="#b4fc00" fill-rule="nonzero">
            <path d="M256,96 C282.5,96 304,117.5 304,144 C304,170.5 282.5,192 256,192 C229.5,192 208,170.5 208,144 C208,117.5 229.5,96 256,96 Z M256,64 C211.9,64 176,99.9 176,144 C176,188.1 211.9,224 256,224 C300.1,224 336,188.1 336,144 C336,99.9 300.1,64 256,64 Z" id="head"/>
            <path d="M256,240 C307.9,240 352.3,270.6 369.1,314.4 C354.8,326.9 336.3,334.4 316.3,334.4 C297.5,334.4 280.1,327.9 266.5,316.8 C258.5,323.5 248.6,328 238,328 C227.4,328 217.5,323.5 209.5,316.8 C195.9,327.9 178.5,334.4 159.7,334.4 C139.7,334.4 121.2,326.9 106.9,314.4 C123.7,270.6 168.1,240 256,240 Z" id="upper-body" fill="#7ead00"/>
            <path d="M316.3,352 C345.6,352 371.9,339.8 391.6,319.8 L391.6,448 L120.4,448 L120.4,319.8 C140.1,339.8 166.4,352 195.7,352 C214.5,352 232,344.5 245.5,332.4 C251.9,336.4 259.3,338.7 267.1,338.7 C274.9,338.7 282.3,336.4 288.7,332.4 C302.2,344.5 319.7,352 338.5,352 L316.3,352 Z" id="lower-body" fill="#b4fc00"/>
            <path d="M136,310 L136,358 C124.7,350.3 116,338.1 112,324 L112,358 L96,358 L96,310 C96,276.9 122.9,250 156,250 C189.1,250 216,276.9 216,310 L216,358 L200,358 L200,324 C196,338.1 187.3,350.3 176,358 L176,310 C176,285.1 156.9,266 132,266 C107.1,266 88,285.1 88,310 L88,358 L72,358 L72,310 C72,276.9 98.9,250 132,250 C165.1,250 192,276.9 192,310 L192,358 L176,358 L176,310 C176,285.1 156.9,266 132,266 C107.1,266 88,285.1 88,310 Z M416,310 L416,358 L400,358 L400,310 C400,285.1 380.9,266 356,266 C331.1,266 312,285.1 312,310 L312,358 L296,358 L296,310 C296,276.9 322.9,250 356,250 C389.1,250 416,276.9 416,310 Z M376,310 L376,358 L360,358 L360,310 C360,285.1 340.9,266 316,266 C291.1,266 272,285.1 272,310 L272,358 L256,358 L256,310 C256,276.9 282.9,250 316,250 C349.1,250 376,276.9 376,310 Z" id="arms" fill="#7ead00"/>
            <path d="M158.4,360 L158.4,432 C141.6,423.2 130.4,405.6 130.4,384 L146.4,384 C146.4,399.2 155.2,412 168.4,418.4 L168.4,360 L158.4,360 Z M369.6,360 L369.6,432 C386.4,423.2 397.6,405.6 397.6,384 L381.6,384 C381.6,399.2 372.8,412 359.6,418.4 L359.6,360 L369.6,360 Z" id="legs" fill="#b4fc00"/>
        </g>
    </g>
</svg>
